<svg xmlns="http://www.w3.org/2000/svg" xmlns:xlink="http://www.w3.org/1999/xlink" version="1.1" x="0px" y="0px" viewBox="0 0 100 125" style="enable-background:new 0 0 100 100;" xml:space="preserve"><path d="M29,83h42c0.5,0,0.9-0.2,1.2-0.5c0.3-0.3,0.5-0.8,0.5-1.2l-2.6-45.6c-0.1-0.9-0.8-1.6-1.7-1.6h-8v-6.6  C60.5,21.7,55.8,17,50,17s-10.5,4.7-10.5,10.5v6.6h-8c-0.9,0-1.6,0.7-1.7,1.6l-2.6,45.6c0,0.5,0.1,0.9,0.5,1.2  C28.1,82.8,28.5,83,29,83z M42.9,27.4c0-3.9,3.2-7.1,7.1-7.1s7.1,3.2,7.1,7.1v6.6H42.9V27.4z M33.1,37.4h6.4v4.3  c0,0.9,0.7,1.7,1.7,1.7c0.9,0,1.7-0.7,1.7-1.7v-4.3h14.3v4.3c0,0.9,0.7,1.7,1.7,1.7c0.9,0,1.7-0.7,1.7-1.7v-4.3h6.4l2.4,42.3H30.7  L33.1,37.4z"/></svg>