<svg xmlns="http://www.w3.org/2000/svg" xmlns:xlink="http://www.w3.org/1999/xlink" version="1.1" x="0px" y="0px" viewBox="0 0 100 125" style="enable-background:new 0 0 100 100;" xml:space="preserve"><g><path d="M27.6,57.1v2.6c0,3.4,1.6,6.4,4,8.4c-2.4,1.2-4,3.7-4,6.5c0,4.1,3.3,7.4,7.4,7.4s7.4-3.3,7.4-7.4c0-1.5-0.4-2.9-1.2-4h23.2   c-0.8,1.2-1.2,2.5-1.2,4c0,4.1,3.3,7.4,7.4,7.4s7.4-3.3,7.4-7.4c0-4.1-3.3-7.4-7.4-7.4H38.5c-4.2,0-7.6-3.4-7.6-7.6v-0.9h33.7   c4,0,7.6-2.4,9.2-6.1l7.7-18.2c0.2-0.5,0.2-1-0.1-1.5c-0.3-0.5-0.7-0.8-1.3-0.8l-49.4-4.9C30.1,22.1,25.5,18,20,18   c-0.9,0-1.7,0.7-1.7,1.7c0,0.9,0.7,1.7,1.7,1.7c4.2,0,7.6,3.4,7.6,7.6V57.1z M35,78.7c-2.2,0-4-1.8-4-4s1.8-4,4-4c2.2,0,4,1.8,4,4   S37.2,78.7,35,78.7z M74.5,74.7c0,2.2-1.8,4-4,4c-2.2,0-4-1.8-4-4s1.8-4,4-4C72.6,70.6,74.5,72.5,74.5,74.7z M70.8,51.4   c-1,2.5-3.4,4-6.1,4H30.9V30.7l46.7,4.6L70.8,51.4z"/></g></svg>