<svg xmlns="http://www.w3.org/2000/svg" xmlns:xlink="http://www.w3.org/1999/xlink" version="1.1" x="0px" y="0px" viewBox="0 0 100 125" style="enable-background:new 0 0 100 100;" xml:space="preserve"><path d="M73.5,41.9L50.9,27.3c-0.5-0.4-1.3-0.4-1.8,0L26.5,41.9c-0.5,0.3-0.8,0.8-0.8,1.4v28.1c0,0.9,0.7,1.7,1.7,1.7h10.2  c0.9,0,1.7-0.7,1.7-1.7V53.5h9v17.8c0,0.9,0.7,1.7,1.7,1.7h22.6c0.9,0,1.7-0.7,1.7-1.7V43.3C74.2,42.7,73.9,42.2,73.5,41.9z   M70.9,69.7H51.7V51.8c0-0.9-0.7-1.7-1.7-1.7H37.6c-0.9,0-1.7,0.7-1.7,1.7v17.8h-6.9V44.2L50,30.7l20.9,13.5V69.7z"/></svg>