{
  "accessors": [
    {
      "bufferView": 1,
      "componentType": 5126,
      "count": 34135,
      "max": [
        6.8989753723144531,
        21.490833282470703,
        20.154670715332031
      ],
      "min": [
        -27.180923461914062,
        -12.646706581115723,
        -11.765769958496094
      ],
      "type": "VEC3"
    },
    {
      "bufferView": 1,
      "byteOffset": 409620,
      "componentType": 5126,
      "count": 34135,
      "max": [
        0.99999380111694336,
        0.99987989664077759,
        0.99999320507049561
      ],
      "min": [
        -0.9999997615814209,
        -0.99990391731262207,
        -0.99987804889678955
      ],
      "type": "VEC3"
    },
    {
      "bufferView": 2,
      "componentType": 5126,
      "count": 34135,
      "max": [
        0.99976938962936401,
        0.99971389770507812,
        0.99989664554595947,
        1
      ],
      "min": [
        -0.9983331561088562,
        -0.99998056888580322,
        -0.99995595216751099,
        -1
      ],
      "type": "VEC4"
    },
    {
      "bufferView": 0,
      "componentType": 5125,
      "count": 198528,
      "max": [
        34134
      ],
      "min": [
        0
      ],
      "type": "SCALAR"
    }
  ],
  "asset": {
    "extras": {
      "author": "Edgar Vázquez (https://sketchfab.com/edgar.vz)",
      "license": "CC-BY-4.0 (http://creativecommons.org/licenses/by/4.0/)",
      "source": "https://sketchfab.com/models/bb6315c3500d4ffc84b68151b015621e",
      "title": "Loki Helmet"
    },
    "generator": "Sketchfab-3.18.5",
    "version": "2.0"
  },
  "bufferViews": [
    {
      "buffer": 0,
      "byteLength": 794112,
      "byteOffset": 0,
      "name": "floatBufferViews",
      "target": 34963
    },
    {
      "buffer": 0,
      "byteLength": 819240,
      "byteOffset": 794112,
      "byteStride": 12,
      "name": "floatBufferViews",
      "target": 34962
    },
    {
      "buffer": 0,
      "byteLength": 546160,
      "byteOffset": 1613352,
      "byteStride": 16,
      "name": "floatBufferViews",
      "target": 34962
    }
  ],
  "buffers": [
    {
      "byteLength": 2159512,
      "uri": "scene.bin"
    }
  ],
  "materials": [
    {
      "doubleSided": true,
      "emissiveFactor": [
        0,
        0,
        0
      ],
      "name": "Material_41",
      "pbrMetallicRoughness": {
        "baseColorFactor": [
          0,
          0,
          0,
          1
        ],
        "metallicFactor": 0,
        "roughnessFactor": 0.59999999999999998
      }
    }
  ],
  "meshes": [
    {
      "name": "casco_Material #41_0",
      "primitives": [
        {
          "attributes": {
            "NORMAL": 1,
            "POSITION": 0,
            "TANGENT": 2
          },
          "indices": 3,
          "material": 0,
          "mode": 4
        }
      ]
    }
  ],
  "nodes": [
    {
      "children": [
        1
      ],
      "name": "RootNode (gltf orientation matrix)",
      "rotation": [
        -0.70710678118654746,
        -0,
        -0,
        0.70710678118654757
      ]
    },
    {
      "children": [
        2
      ],
      "name": "RootNode (model correction matrix)"
    },
    {
      "children": [
        3
      ],
      "matrix": [
        1,
        0,
        0,
        0,
        0,
        0,
        1,
        0,
        0,
        -1,
        0,
        0,
        0,
        0,
        0,
        1
      ],
      "name": "Loki Helmet.fbx"
    },
    {
      "children": [
        4
      ],
      "name": "RootNode"
    },
    {
      "children": [
        5
      ],
      "matrix": [
        6.1439065168755747e-08,
        -0.99999999999999822,
        -1.6653345369377348e-16,
        0,
        -0.65974780598605842,
        -4.0534288317334908e-08,
        -0.75148723935618089,
        0,
        0.75148723935617945,
        4.6170673570531101e-08,
        -0.65974780598605975,
        0,
        0,
        -10.555201530456543,
        -4.1780776977539062,
        1
      ],
      "name": "casco"
    },
    {
      "mesh": 0,
      "name": "casco_Material #41_0"
    }
  ],
  "scene": 0,
  "scenes": [
    {
      "name": "OSG_Scene",
      "nodes": [
        0
      ]
    }
  ]
}

